# xmcd CD database file
#
# Track frame offsets:
#	150
#	4497
#	8844
#	11763
#	14682
#	16180
#	17678
#	19625
#	21499
#	24272
#	27045
#	29069
#
# Disc length: 414 seconds
#
# Revision: 0
# Processed by: cddbd v1.5.2PL0 Copyright (c) Steve Scherf et al.
# Submitted via: CD2WAV32(JP) R3.22
#
DISCID=82019c0c
DTITLE=Other - 赤ちゃんとふれあいあそび
DYEAR=2011
DGENRE=Other
TTITLE0=ぼうずぼうず
TTITLE1=ぼうずぼうず（伴奏のみ）
TTITLE2=おでこさん
TTITLE3=おでこさん（伴奏のみ）
TTITLE4=おふねはぎっちらこ
TTITLE5=おふへはぎっちらこ（伴奏のみ）
TTITLE6=くまさんくまさん
TTITLE7=くまさんくまさん（伴奏のみ）
TTITLE8=いとまきのうた
TTITLE9=いとまきのうた（伴奏のみ）
TTITLE10=あたまかたひざぽん
TTITLE11=あたまかたひざぽん（伴奏のみ）
EXTD=
EXTT0=
EXTT1=
EXTT2=
EXTT3=
EXTT4=
EXTT5=
EXTT6=
EXTT7=
EXTT8=
EXTT9=
EXTT10=
EXTT11=
PLAYORDER=
